
<?xml version="1.0" encoding="UTF-8"?><svg id="Logos" xmlns="http://www.w3.org/2000/svg" xmlns:xlink="http://www.w3.org/1999/xlink" viewBox="0 0 504 144"><defs><style>.cls-1{fill:url(#linear-gradient);}.cls-1,.cls-2,.cls-3{stroke:#202124;stroke-miterlimit:10;stroke-width:5.37829px;}.cls-2{fill:url(#linear-gradient-2);}.cls-4{fill:#202124;}.cls-3{fill:url(#linear-gradient-3);}</style><linearGradient id="linear-gradient" x1="-444.34881" y1="-1868.92055" x2="-403.00244" y2="-1804.76829" gradientTransform="translate(539 -1785.5) scale(1 -1)" gradientUnits="userSpaceOnUse"><stop offset="0" stop-color="#39a845"/><stop offset="1" stop-color="#7fd37f"/></linearGradient><linearGradient id="linear-gradient-2" x1="-416.83975" y1="-1907.48294" x2="-371.84688" y2="-1867.69152" gradientTransform="translate(539 -1785.5) scale(1 -1)" gradientUnits="userSpaceOnUse"><stop offset="0" stop-color="#ffc300"/><stop offset="1" stop-color="#fee715"/></linearGradient><linearGradient id="linear-gradient-3" x1="-424.56403" y1="-1834.76425" x2="-401.95936" y2="-1826.68767" gradientTransform="translate(539 -1785.5) scale(1 -1)" gradientUnits="userSpaceOnUse"><stop offset="0" stop-color="#ffd500"/><stop offset="1" stop-color="#fee715"/></linearGradient></defs><g><path class="cls-1" d="M96.89582,23.78827c20.9735-.88114,41.94396-1.75923,62.91745-2.64036-6.53993,15.92145-13.07985,31.84289-19.62283,47.76434-10.2657,.30489-20.52836,.60978-30.79406,.91468-3.15563,17.5831-6.31431,35.16316-9.46994,52.74626h-16.43671c4.46666-32.9283,8.93638-65.85661,13.40609-98.78491Z"/><path class="cls-2" d="M151.32204,93.60847h-22.98273c.79881,5.69233,1.60068,11.38161,2.3995,17.07393,12.65301-1.32628,25.30906-2.65256,37.96207-3.97579,.45734,5.59476,.91162,11.18953,1.36896,16.78124-20.02224-.20428-40.04143-.4055-60.06367-.60978,2.75012-13.77195,5.4972-27.54392,8.24732-41.31587l32.91306-1.8202,.15549,13.86647h0Z"/><polygon class="cls-3" points="117.21991 38.88956 113.35998 51.83831 130.02841 53.07312 135.87013 36.98703 117.21991 38.88956"/></g><g><path class="cls-4" d="M199.36964,107.91895V40.14258h15.07129V107.91895h-15.07129Zm11.51953-54.81641v-12.95996h36.67188v12.95996h-36.67188Zm0,26.49609v-12.57617h33.79199v12.57617h-33.79199Zm0,28.32031v-13.05566h37.15234v13.05566h-37.15234Z"/><path class="cls-4" d="M254.66652,127.59863V61.2627h14.68848v12l-2.40039,11.32812,2.20801,11.32812v31.67969h-14.49609Zm26.88086-18.71973c-3.13672,0-6.0166-.60938-8.64062-1.82422-2.625-1.21484-4.76855-2.89453-6.43164-5.04004-1.66504-2.14355-2.625-4.59082-2.87988-7.34375v-19.67969c.25488-2.75098,1.21484-5.24707,2.87988-7.48828,1.66309-2.23926,3.80664-3.99902,6.43164-5.28027,2.62402-1.2793,5.50391-1.91992,8.64062-1.91992,4.41602,0,8.33496,1.05664,11.75977,3.16797,3.42285,2.1123,6.11035,4.99219,8.06348,8.64062,1.95215,3.64746,2.92871,7.80859,2.92871,12.47949,0,4.67285-.97656,8.83203-2.92871,12.48047-1.95312,3.64746-4.64062,6.52734-8.06348,8.63965-3.4248,2.1123-7.34375,3.16797-11.75977,3.16797Zm-2.68848-13.24805c2.1123,0,3.95117-.47949,5.52051-1.43945,1.56738-.96094,2.79883-2.27148,3.69531-3.93652,.89551-1.66309,1.34375-3.55176,1.34375-5.66406,0-2.1748-.44824-4.09473-1.34375-5.75977-.89648-1.66406-2.12793-2.95996-3.69531-3.8877-1.56934-.92773-3.37695-1.39258-5.4248-1.39258-2.04883,0-3.85645,.46484-5.42383,1.39258-1.56934,.92773-2.80078,2.22363-3.69629,3.8877-.89648,1.66504-1.34375,3.58496-1.34375,5.75977,0,2.1123,.43262,4.00098,1.2959,5.66406,.86426,1.66504,2.0957,2.97559,3.69629,3.93652,1.59863,.95996,3.3916,1.43945,5.37598,1.43945Z"/><path class="cls-4" d="M318.56886,54.83105c-2.30371,0-4.20898-.7832-5.71191-2.35254-1.50488-1.56738-2.25586-3.4707-2.25586-5.71191,0-2.30371,.75098-4.22363,2.25586-5.75977,1.50293-1.53613,3.4082-2.30371,5.71191-2.30371s4.19043,.76758,5.66406,2.30371c1.47168,1.53613,2.20801,3.45605,2.20801,5.75977,0,2.24121-.73633,4.14453-2.20801,5.71191-1.47363,1.56934-3.36035,2.35254-5.66406,2.35254Zm-7.39258,53.08789V61.2627h14.68848v46.65625h-14.68848Z"/><path class="cls-4" d="M358.47999,108.97461c-4.7998,0-9.15332-1.05566-13.05566-3.16797-3.90527-2.11133-6.97656-5.02344-9.2168-8.73535-2.24023-3.71094-3.35938-7.87207-3.35938-12.48047,0-4.6709,1.13477-8.84668,3.40723-12.52832,2.27148-3.67871,5.36035-6.5752,9.26465-8.6875,3.90234-2.1123,8.28711-3.16797,13.15137-3.16797,3.64844,0,6.99219,.62402,10.03223,1.87207,3.03906,1.24805,5.74414,3.12012,8.1123,5.61621l-9.4082,9.40723c-1.08887-1.21484-2.35156-2.11133-3.79199-2.6875-1.43945-.57617-3.08887-.86426-4.94434-.86426-2.11133,0-3.9834,.46484-5.61523,1.39258s-2.91309,2.20801-3.83984,3.83984c-.92871,1.63184-1.39258,3.53711-1.39258,5.71191,0,2.17676,.46387,4.09668,1.39258,5.75977,.92676,1.66504,2.22266,2.97559,3.8877,3.93652,1.66309,.95996,3.51855,1.43945,5.56738,1.43945,1.9209,0,3.63184-.33594,5.13672-1.00781,1.50293-.67188,2.79883-1.61523,3.8877-2.83203l9.3125,9.4082c-2.43359,2.56055-5.18457,4.49707-8.25684,5.80762-3.07129,1.31152-6.49609,1.96777-10.27148,1.96777Z"/><path class="cls-4" d="M400.54249,109.07129c-2.75195,0-5.45703-.35254-8.11133-1.05664-2.65723-.70312-5.12109-1.71094-7.39258-3.02344-2.27246-1.31152-4.20898-2.83203-5.80762-4.56055l8.35156-8.44727c1.53613,1.66406,3.36035,2.96094,5.47266,3.8877,2.11133,.92871,4.41504,1.3916,6.91113,1.3916,1.72852,0,3.05566-.25488,3.98438-.76758,.92676-.51172,1.3916-1.21484,1.3916-2.1123,0-1.15234-.56055-2.03125-1.67969-2.63965-1.12012-.60742-2.54395-1.15234-4.27148-1.63184-1.72852-.48047-3.55273-1.00879-5.47266-1.58398-1.91992-.57617-3.74414-1.37598-5.47168-2.40039-1.72852-1.02344-3.13672-2.44824-4.22363-4.27246-1.08984-1.82324-1.63281-4.14258-1.63281-6.95996,0-3.00684,.76855-5.61523,2.30469-7.82324s3.71094-3.95117,6.52734-5.23242c2.81543-1.2793,6.11133-1.91992,9.88867-1.91992,3.9668,0,7.63184,.68848,10.99121,2.06445,3.36035,1.37695,6.09668,3.40723,8.20801,6.0957l-8.35156,8.44824c-1.47266-1.72852-3.12012-2.94336-4.94434-3.64844-1.82324-.70312-3.59961-1.05566-5.32812-1.05566-1.66406,0-2.91211,.23926-3.74316,.71973-.83301,.47949-1.24805,1.16895-1.24805,2.06445,0,.95996,.54297,1.72754,1.63184,2.30371,1.08691,.57617,2.49609,1.08887,4.22363,1.53613,1.72852,.44824,3.55176,.99316,5.47266,1.63184,1.91992,.64062,3.74316,1.50391,5.47168,2.5918,1.72754,1.08887,3.13477,2.54395,4.22363,4.36816,1.08789,1.82422,1.63184,4.20898,1.63184,7.15234,0,4.54492-1.71289,8.15918-5.13574,10.84766-3.4248,2.6875-8.04883,4.03223-13.87207,4.03223Z"/></g></svg>